<?xml version="1.0" encoding="utf-8"?>
<!-- Generator: Adobe Illustrator 27.4.1, SVG Export Plug-In . SVG Version: 6.00 Build 0)  -->
<svg version="1.1" id="Layer_1" xmlns="http://www.w3.org/2000/svg" xmlns:xlink="http://www.w3.org/1999/xlink" x="0px" y="0px"
	 viewBox="0 0 24 24" style="enable-background:new 0 0 24 24;" xml:space="preserve">
<style type="text/css">
	.st0{fill-rule:evenodd;clip-rule:evenodd;fill:#76453B;}
</style>
<path class="st0" d="M12,1.2C6.1,1.2,1.2,6.1,1.2,12c0,5.9,4.8,10.8,10.8,10.8c5.9,0,10.8-4.8,10.8-10.8C22.8,6.1,17.9,1.2,12,1.2z
	 M12,6.2c-1.8,0-3.3,1.5-3.3,3.2c0,1.8,1.5,3.2,3.3,3.2c1.8,0,3.3-1.5,3.3-3.2C15.2,7.7,13.8,6.2,12,6.2z M17,16.5
	c-2.7-2.9-7.5-2.7-10.1,0l-0.2,0.2c-0.1,0.1-0.2,0.3-0.2,0.5c0,0.2,0.1,0.4,0.2,0.5c1.4,1.2,3.2,2,5.2,2s3.8-0.8,5.2-2
	c0.2-0.1,0.2-0.3,0.2-0.5c0-0.2-0.1-0.4-0.2-0.5L17,16.5z"/>
</svg>
