<?xml version="1.0" encoding="UTF-8"?>
<svg id="Layer_2" data-name="Layer 2" xmlns="http://www.w3.org/2000/svg" viewBox="0 0 200.13 108.4">
  <g id="Layer_1-2" data-name="Layer 1">
    <g>
      <path d="m104.7,94.2c2.7-3.6,6.2-6.4,10.3-8.3,4-1.8,8.3-2.9,12.6-3.3,4.9-.4,9.8-.3,14.7.2,5.5.6,11,1.6,16.5,2.3,4.4.6,8.7,1,13.1,1.1,3.6.1,7.3.2,10.9.1.8-.1,1.5.2,2.1.8l-2.7-3.8c-.2-.2-.5-.3-.7-.3h-.9c-3.8.1-7.5-.1-11.2-.7-5.7-.7-11.4-1.8-17-3-4-.9-8-1.5-12.1-1.8-5.8-.5-11.7-.1-17.4,1.1-3,.7-5.9,1.7-8.6,3.2-2.4,1.4-4.5,3-6.4,5-1.9,1.7-3.5,3.7-4.8,5.9-.2.4-.6.6-1,.5l2.7,1.3c-.2.1-.3,0-.1-.3h0Z" style="fill: #525af2;"/>
      <path d="m128.6,50l-.5.5.5-.5Z" style="fill: #525af2;"/>
      <path d="m127.3,10.2l.7.1-.7-.1Z" style="fill: #525af2;"/>
      <path d="m96.7,93.2c-.9-1.5-1.9-2.9-3.1-4.2-2.6-3.1-5.8-5.6-9.3-7.5-4.6-2.2-9.7-3.4-14.8-3.7-6.5-.4-13.1,0-19.5,1.3-4.6.9-9.2,1.9-13.8,2.7-5.6,1-11.3,1.5-17.1,1.5-.1,0-.3.1-.4-.1v-.1l-3.6,4.5.6-.5c.4-.4.9-.5,1.4-.5,3.4,0,6.8,0,10.2-.1,4.2-.2,8.3-.5,12.4-1,3.9-.5,7.8-1.2,11.7-1.8,4.3-.7,8.6-1.1,12.9-1.2,5.6-.2,11.2.5,16.6,2.1,4.4,1.3,8.4,3.7,11.7,6.8.8.8,1.5,1.7,2.2,2.7.2.3.3.5-.1.8l3.6-1.4c-.3,0-.6.1-.9.2-.4-.1-.6-.2-.7-.5h0Z" style="fill: #525af2;"/>
      <path d="m104.7,94.2c2.7-3.6,6.2-6.4,10.3-8.3,4-1.8,8.3-2.9,12.6-3.3,4.9-.4,9.8-.3,14.7.2,5.5.6,11,1.6,16.5,2.3,4.4.6,8.7,1,13.1,1.1,3.6.1,7.3.2,10.9.1.8-.1,1.5.2,2.1.8l-2.7-3.8c-.2-.2-.5-.3-.7-.3h-.9c-3.8.1-7.5-.1-11.2-.7-5.7-.7-11.4-1.8-17-3-4-.9-8-1.5-12.1-1.8-5.8-.5-11.7-.1-17.4,1.1-3,.7-5.9,1.7-8.6,3.2-2.4,1.4-4.5,3-6.4,5-1.9,1.7-3.5,3.7-4.8,5.9-.2.4-.6.6-1,.5l2.7,1.3c-.2.1-.3,0-.1-.3h0Z" style="fill: #af8558;"/>
      <path d="m96.7,93.2c-.9-1.5-1.9-2.9-3.1-4.2-2.6-3.1-5.8-5.6-9.3-7.5-4.6-2.2-9.7-3.4-14.8-3.7-6.5-.4-13.1,0-19.5,1.3-4.6.9-9.2,1.9-13.8,2.7-5.6,1-11.3,1.5-17.1,1.5-.1,0-.3.1-.4-.1v-.1l-3.6,4.5.6-.5c.4-.4.9-.5,1.4-.5,3.4,0,6.8,0,10.2-.1,4.2-.2,8.3-.5,12.4-1,3.9-.5,7.8-1.2,11.7-1.8,4.3-.7,8.6-1.1,12.9-1.2,5.6-.2,11.2.5,16.6,2.1,4.4,1.3,8.4,3.7,11.7,6.8.8.8,1.5,1.7,2.2,2.7.2.3.3.5-.1.8l3.6-1.4c-.3,0-.6.1-.9.2-.4-.1-.6-.2-.7-.5h0Z" style="fill: #af8558;"/>
      <path d="m30.3,67.3c.9-.3,1.8-.6,2.8-.8,2.8-.9,5.4-2.2,7.9-3.9,2.3-1.4,4.4-3.2,6.6-4.9,1.9-1.6,4.1-2.9,6.4-3.9,3.5-1.3,7.3-1.5,11-.8,7.3,1.3,13.9,5.1,18.8,10.7,1.2,1.5,2.2,3.1,3.1,4.8.1.1.1.2.1.3-.2,0-.3-.1-.5-.2-4.2-3.2-9-5.4-14.2-6.4-4-.8-8-1.1-12.1-.8-5.5.5-10.9,1.6-16.1,3.5-2.5.8-5.1,1.5-7.7,1.9-1.9.2-4,.4-6.1.5h0Z" style="fill: #b19470;"/>
      <path d="m170.3,74c-5.2-.7-10.3-1.8-15.4-2.9-4.6-1.1-9.2-2-13.9-2.5-4.1-.4-8.1-.3-12.2.4-2.8.4-5.5,1.2-8.1,2.3-5.5,2.6-10.1,6.6-13.6,11.5-.3.5-.6,1-1,1.4.3-.1.6-.3.8-.6,2.7-2.6,5.8-4.8,9.2-6.5,4.5-2.2,9.4-3.5,14.4-4,4.1-.4,8.1-.3,12.2.4,2.4.4,4.9.8,7.3,1.3,3.6.7,7.2,1.5,10.9,2.1,5.1.9,10.3,1.4,15.5,1.3.3,0,.5.1.7.3l-3.4-4.5c-1.2.1-2.3.1-3.4,0h0Z" style="fill: #b19470;"/>
      <path d="m22.7,79.2c.6-.4,1.3-.7,2-.8,5,0,9.9-.5,14.8-1.4,4.5-.8,9-1.9,13.5-2.6,2.7-.5,5.5-.9,8.2-1.2,5.3-.3,10.5.3,15.6,1.7,5,1.4,9.6,3.7,13.6,7,.9.8,1.8,1.5,2.7,2.3-.5-.9-1.1-1.8-1.8-2.7-2.6-3.5-5.9-6.5-9.7-8.7-5-3.1-10.7-3.9-16.4-4.3-4.1-.2-8.2.2-12.3,1-4.8.8-9.5,2.1-14.3,3.1-3.5.8-7.1,1.3-10.7,1.6,0-.1-6.7,6-5.2,5h0Z" style="fill: #b19470;"/>
      <path d="m127.3,10.2c-10.5-.3-18.8,7.7-23.2,16.6h-.2c-4.1-12.5-14.3-24.6-28.1-26.2-.2.3-.3.3-.5,0-22.5-.5-20.9,22.3-10,35.7,10,15,28.4,24.3,32,43.1,1.5,1.4,2.6-2.8,2.6-3.9,1.5-11-7.6-19.6-14.2-27-6.9-7.1-14-14.5-18.6-23.4-4.2-8.9-6.3-21.7,7.4-20.4,14.4,1.9,27.7,15.5,27.7,30.2,1.2.3,2.4.1,2.5-1.3.6-4.8,3.6-9,6.7-12.7,7.6-9.5,23.3-11.1,24.8,3.5.6,18.2-17.1,31.1-31.8,38.5v.1c6,1,13.3-5.1,18.3-8.2,10.4-7.6,20.1-20.3,18.3-33.5-1.2-6.2-7.2-10.9-13.7-11.1h0Z" style="fill: #b19470;"/>
      <path d="m137.3,58.8c-.4-1.2.3-2.5,1.6-2.9h.1c1.2-.4,2.5.2,2.9,1.4v.1c.5,1.5-.2,2.5-1.7,2.9-1.2.4-2.4-.2-2.8-1.3-.1-.1-.1-.2-.1-.2h0Z" style="fill: #b19470;"/>
      <path d="m154.6,56.1c-.9.2-1.8-.3-2.1-1.2v-.1c-.2-.9.4-1.7,1.2-1.9s1.5.3,1.8,1c.4.9,0,1.8-.9,2.2h0Z" style="fill: #b19470;"/>
      <path d="m47.5,27c-2.1-.1-3.2-1.1-3.2-3-.2-1.6,1-3,2.6-3.2h.6c1.6-.1,2.9,1.2,2.9,2.7v.5c.1,1.5-1,2.9-2.5,3h-.4Z" style="fill: #b19470;"/>
      <path d="m199.9,96.8c-2-1.8-3.7-3.8-5.6-5.7-2.7-2.7-5.5-5.2-8.2-7.8-3-2.8-6-5.7-8.9-8.6-.5-.5-1.2-.7-1.9-.7h-1.6s10.7,15.4,12.1,16.7c-.6.2-8.8.2-14,0-5.1-.1-10.3-.4-15.4-1-4.2-.5-8.4-1.2-12.7-1.8-4.7-.6-9.5-.8-14.2-.4-4.8.2-9.5,1.5-13.7,3.8-2.9,1.7-5.4,4-7.3,6.7-.1.2-.1.4-.4.4s-.2-.3-.3-.4c-1.2-2.2-1.1-3.5-5.3-5-4.3-1.3-8.9.8-10.7,4.9-.2.4-.3.5-.6.1-.9-1.3-1.9-2.5-3.2-3.5-1.5-1.4-3.1-2.5-4.8-3.6-3.2-1.5-6.5-2.5-10-3-4-.5-8.1-.7-12.2-.4-4,.2-7.9.8-11.8,1.4-5,.8-10,1.4-15,1.7-6.9.4-13.8.5-20.7.2-.3,0-.6,0-.9-.1.6-.5,15.2-16.8,15.2-16.8-1,0-1.9.1-2.9,0-.7,0-1.4.3-1.9.9-2.9,2.7-5.8,5.4-8.6,8.2-3.9,3.8-8,7.4-11.7,11.4-.8,1-1.7,1.9-2.7,2.9h.4c5.2-.1,10.4.3,15.6.3,1.5-.1,2.9,0,4.3.2,1.4.3,2.9.4,4.4.4,3.1-.2,6.1-.2,9.2,0,8.5.3,17.1.5,25.6.5,6,0,12,0,18,.5,1.9.1,3.8.4,5.6,1.1,1.5.7,2.9,1.8,3.8,3.2,1.3,1.9,3.3,3.3,5.5,4,1.3.4,2.4.8,3.9.2s3.3-.3,5-.3c2.1,0,4.2.1,6.2,0,1.5,0,2.9-.6,3.9-1.7.7-.8,1.4-1.7,2.1-2.6,1.3-1.8,3.2-2.9,5.4-3.3,3.6-.5,7.2-.8,10.9-.8,8-.2,15.9-.2,23.9-.5,7.5-.3,14.9-.4,22.4-.6,7.8-.2,15.6-.3,23.5-.5.2,0,.4.1.5-.1s-.1-.4-.2-.5h0Z" style="fill: #76453b;"/>
      <path d="m148.9,52.2c-1.8.2-3-.5-3.4-2-.5-1.2.1-2.6,1.4-3.1.2-.1.4-.1.6-.1,1.7-.4,2.6.7,3,2.2s-.6,2.4-1.6,3h0Z" style="fill: #76453b;"/>
      <path d="m38.2,23.9c-.2,1.3-.7,2.4-2.2,2.4-1.1.1-2.2-.7-2.3-1.9v-.3c-.2-1.1.6-2.1,1.7-2.3h.4c1.2-.1,2.3.9,2.4,2.1h0Z" style="fill: #76453b;"/>
      <path d="m49.2,40c.9-.1,1.7.5,1.8,1.3v.2c.2,1-.4,1.9-1.4,2.1h-.2c-.9.1-1.8-.5-2-1.4v-.3c-.2-1.1.6-1.7,1.8-1.9Z" style="fill: #76453b;"/>
      <rect width="200.1" height="108.4" style="fill: none;"/>
    </g>
  </g>
</svg>