<?xml version="1.0" encoding="UTF-8"?>
<svg id="Layer_2" data-name="Layer 2" xmlns="http://www.w3.org/2000/svg" viewBox="0 0 58.18 42.61">
  <g id="Layer_1-2" data-name="Layer 1">
    <g>
      <path d="m57.68,30.77c-.16.59-.34,1.05-.59,1.29-.97.97-30.29,9.66-31.9,8.87C23.59,40.12,3.44,17.08.06,12.42c-.32-1.6.65-3.87,1.6-4.84.04-.04.11-.07.21-.12C4.73,6.15,32.77,0,32.77,0c0,0,21.28,19.48,24.8,23.76.29.36.47.61.49.73.04.22.07.49.09.81.11,1.49-.06,3.92-.47,5.47Z" style="fill: #00b2e6;"/>
      <path d="m57.68,30.77c-.16.59-.34,1.05-.59,1.29-.97.97-30.29,9.66-31.9,8.87C23.59,40.12,3.44,17.08.06,12.42c-.32-1.6.65-3.87,1.6-4.84.04-.04.11-.07.21-.12,5.54,6.62,21.93,25.25,22.99,25.25s23.52-6.5,32.7-8.95c.29.36.47.61.49.73.04.22.07.49.09.81.11,1.49-.06,3.92-.47,5.47Z" style="fill: #00a1c6;"/>
      <path d="m57.68,30.77c-8.51,2.49-30.71,8.93-31.36,8.54-.81-.49-.65-4.19,0-5.31.55-.96,24.64-6.93,31.83-8.69.1,1.49-.07,3.92-.48,5.47Z" style="fill: #e8ffef; fill-rule: evenodd;"/>
      <polygon points="27.58 35.74 56.55 27.32 56.55 27.79 27.84 36.23 27.58 35.74" style="fill: #00a1c6; opacity: .17;"/>
      <polygon points="27.58 37.61 56.55 29.18 56.55 29.65 27.84 38.1 27.58 37.61" style="fill: #00a1c6; opacity: .17;"/>
      <path d="m27.58,35.74l3.33-.94s1.78,1.87,1.25,6.36c-.83-.72-1.78-1.15-1.78-1.15l-1.46,2.61s.21-4.16-1.35-6.87Z" style="fill: #f0d62e;"/>
      <path d="m25.63,29.08c.87,0,1.9.2,2.47.97,3.82-.97,21.63-5.99,24.28-6.74-.2-.31-.44-.82-.36-1.35.05-.32.21-.6.48-.83-5.21-5-17.21-16.07-18.42-17.19-.44.12-1.81.42-2.9-.17-.54-.29-.93-.75-1.15-1.37-1.92.47-16,3.83-20.79,5.17.36.54.44,1.04.28,1.52-.28.83-1.27,1.29-1.83,1.48l16.54,18.66c.26-.05.78-.15,1.4-.15Zm2.25,1.52l-.09-.15c-.83-1.4-3.56-.73-3.59-.72l-.13.04L6.84,10.31l.38-.1s1.56-.4,1.85-1.29c.13-.39-.01-.84-.42-1.35l-.23-.28.36-.1C13.51,5.87,29.96,1.93,30.12,1.89l.22-.05.06.22c.17.6.5,1.04.98,1.3,1.1.59,2.66.11,2.67.1l.13-.04.1.1c.13.12,13.39,12.34,18.74,17.49l.22.22-.27.16c-.29.18-.47.4-.5.67-.1.6.45,1.25.45,1.26l.24.28-.36.1c-.21.06-21.08,5.94-24.79,6.87l-.15.04Z" style="fill: #00a1c6;"/>
      <path d="m13.57,11.39l-.16-.45c6.32-2.19,12.84-4.07,19.37-5.55l.11.47c-6.5,1.48-13.01,3.34-19.32,5.53Z" style="fill: #52deff;"/>
      <path d="m15.85,13.64l-.1-.47c6.38-1.27,12.7-3.04,18.81-5.27l.16.45c-6.12,2.23-12.47,4-18.88,5.28Z" style="fill: #52deff;"/>
      <rect x="19.23" y="13.02" width="18.2" height=".48" transform="translate(-2.46 7.75) rotate(-14.94)" style="fill: #52deff;"/>
    </g>
  </g>
</svg>