<?xml version="1.0" encoding="utf-8"?>
<!-- Generator: Adobe Illustrator 27.4.1, SVG Export Plug-In . SVG Version: 6.00 Build 0)  -->
<svg version="1.1" id="Layer_1" xmlns="http://www.w3.org/2000/svg" xmlns:xlink="http://www.w3.org/1999/xlink" x="0px" y="0px"
fill="#76453B"	 viewBox="0 0 24 24" style="enable-background:new 0 0 24 24;" xml:space="preserve">
<g>
	<path class="st0" d="M13.9,15.1c0.6,0.3,1.4,0.8,2,1.3c0.4,0.3,0.8,0.8,0.8,1.5c0.1,0.7-0.2,1.3-0.8,1.8c-0.9,0.9-2.1,1.6-3.5,1.6
		H5.6c-1.5,0-2.6-0.7-3.5-1.6c-0.6-0.5-0.9-1.1-0.8-1.8c0.1-0.6,0.5-1.1,0.8-1.5c0.6-0.6,1.5-1,2-1.3C4.2,15.1,4.3,15,4.4,15
		c2.8-1.6,6.4-1.6,9.2,0C13.7,15,13.8,15.1,13.9,15.1z"/>
	<path class="st0" d="M4.2,7.5c0-2.6,2.1-4.8,4.8-4.8c2.6,0,4.8,2.1,4.8,4.8c0,2.6-2.1,4.8-4.8,4.8C6.4,12.2,4.2,10.1,4.2,7.5z"/>
	<path class="st0" d="M14.2,11c-0.2,0.3-0.3,0.4-0.2,0.5c0,0.1,0.2,0.2,0.4,0.3c0.5,0.3,1.1,0.4,1.7,0.4c2.1,0,3.8-1.7,3.8-3.8
		c0-2.1-1.7-3.8-3.8-3.8c-0.2,0-0.4,0-0.7,0.1c-0.3,0-0.4,0.1-0.5,0.2c-0.1,0.1,0,0.3,0.1,0.6c0.2,0.6,0.3,1.3,0.3,1.9
		C15.2,8.8,14.9,10,14.2,11z"/>
	<path class="st0" d="M18.7,20.2c1.4,0,2.4-0.6,3.3-1.3c0.5-0.4,0.9-1,0.8-1.6c-0.1-0.6-0.5-1-0.8-1.3c-0.6-0.5-1.4-0.9-1.9-1.1
		c-0.1-0.1-0.2-0.1-0.3-0.1c-1-0.5-2.1-0.8-3.2-1c-0.7-0.1-1.1-0.1-1.2,0.1c-0.1,0.2,0.2,0.4,0.9,0.9c0.2,0.2,0.5,0.4,0.7,0.6
		c0.5,0.4,1.2,1.2,1.3,2.4c0.1,0.5,0,1-0.2,1.5c-0.2,0.5-0.3,0.8-0.2,0.9c0,0,0,0,0,0C18,20.2,18.2,20.2,18.7,20.2z"/>
</g>
</svg>
