<?xml version="1.0" encoding="utf-8"?>
<!-- Generator: Adobe Illustrator 27.4.1, SVG Export Plug-In . SVG Version: 6.00 Build 0)  -->
<svg version="1.1" id="Layer_2_00000166641894782645695960000008658843886618286779_"
	 xmlns="http://www.w3.org/2000/svg" xmlns:xlink="http://www.w3.org/1999/xlink" x="0px" y="0px" viewBox="0 0 100 98.5"
	 style="enable-background:new 0 0 100 98.5;" xml:space="preserve">
<style type="text/css">
	.st0{fill:#F8FAE5;}
</style>
<g>
	<path class="st0" d="M25,45c0,6.3-5.1,11.5-11.4,11.5S2.1,51.3,2.1,45s5.1-11.5,11.5-11.5S25,38.7,25,45z"/>
	<path class="st0" d="M75.1,45c0,6.3,5.1,11.5,11.4,11.5S98,51.3,98,45s-5.1-11.5-11.5-11.5S75.1,38.7,75.1,45z"/>
	<path class="st0" d="M43.7,84.4c-0.3-2.4,0.7-4.7,2.3-6.3c-9.7-1.8-13.7-6.6-17.1-10.8c-1.7-2.1-3.3-4.1-5.4-5.5
		c-0.1,0-0.1,0-0.2-0.1c-1.8-1.5-4.1-2.5-6.6-2.5h-6.2C4.7,59.1,0,63.8,0,69.5v28.9h27V79.8c4,3.4,9.5,6.7,18.1,8.2
		C44.4,86.9,43.8,85.8,43.7,84.4L43.7,84.4z"/>
	<path class="st0" d="M89.6,59.1h-6.2c-2.5,0-4.8,1-6.6,2.5c-0.1,0-0.1,0-0.2,0.1c-2.1,1.4-3.7,3.4-5.4,5.5
		c-3.8,4.7-8.1,10-20.1,11.4c-2.7,0.3-4.7,2.8-4.4,5.5c0.3,2.5,2.4,4.4,4.9,4.4c0.2,0,0.4,0,0.6,0C62.4,87.5,68.7,83.8,73,80v18.6
		h27v-29C100,63.8,95.3,59.1,89.6,59.1L89.6,59.1z"/>
	<path class="st0" d="M42.7,26.1V14.6c0-3,2.3-5.4,5.1-5.4H59V6.5c0-3.6-2.8-6.6-6.3-6.6H23.3c-3.5,0-6.3,3-6.3,6.6v14.2
		c0,3.7,2.8,6.6,6.3,6.6h4.9v7.8c0,0.4,0.6,0.7,0.9,0.4c2.3-2.7,4.6-5.5,6.9-8.2h6.9C42.8,26.9,42.7,26.5,42.7,26.1L42.7,26.1z"/>
	<path class="st0" d="M45.6,16.5v12.8c0,2.7,2.1,4.8,4.6,4.8h12.2c1.7,2,3.4,4,5,6c0.2,0.3,0.7,0,0.7-0.3v-5.7h7.6
		c2.6,0,4.6-2.2,4.6-4.8V16.5c0-2.7-2.1-4.8-4.6-4.8H50.3C47.7,11.7,45.6,13.8,45.6,16.5L45.6,16.5z"/>
</g>
</svg>
