<?xml version="1.0" encoding="utf-8"?>
<!-- Generator: Adobe Illustrator 27.4.1, SVG Export Plug-In . SVG Version: 6.00 Build 0)  -->
<svg version="1.1" id="Layer_1" xmlns="http://www.w3.org/2000/svg" xmlns:xlink="http://www.w3.org/1999/xlink" x="0px" y="0px"
	 viewBox="0 0 670.9 119.4" style="enable-background:new 0 0 670.9 119.4;" xml:space="preserve">
<style type="text/css">
	.st0{fill:#525AF2;}
	.st1{fill:#AF8558;}
	.st2{fill:#B19470;}
	.st3{fill:#76453B;}
	.st4{fill:none;}
	.st5{enable-background:new    ;}
	.st6{fill:#43766C;}
</style>
<g id="Layer_1-2">
	<g>
		<path class="st0" d="M105.3,99c2.7-3.6,6.2-6.4,10.3-8.3c4-1.8,8.3-2.9,12.6-3.3c4.9-0.4,9.8-0.3,14.7,0.2
			c5.5,0.6,11,1.6,16.5,2.3c4.4,0.6,8.7,1,13.1,1.1c3.6,0.1,7.3,0.2,10.9,0.1c0.8-0.1,1.5,0.2,2.1,0.8l-2.7-3.8
			c-0.2-0.2-0.5-0.3-0.7-0.3c-0.3,0-0.6,0-0.9,0c-3.8,0.1-7.5-0.1-11.2-0.7c-5.7-0.7-11.4-1.8-17-3c-4-0.9-8-1.5-12.1-1.8
			c-5.8-0.5-11.7-0.1-17.4,1.1c-3,0.7-5.9,1.7-8.6,3.2c-2.4,1.4-4.5,3-6.4,5c-1.9,1.7-3.5,3.7-4.8,5.9c-0.2,0.4-0.6,0.6-1,0.5
			l2.7,1.3C105.2,99.4,105.1,99.3,105.3,99L105.3,99z"/>
		<path class="st0" d="M129.2,54.8l-0.5,0.5L129.2,54.8z"/>
		<path class="st0" d="M127.9,15l0.7,0.1L127.9,15z"/>
		<path class="st0" d="M97.3,98c-0.9-1.5-1.9-2.9-3.1-4.2c-2.6-3.1-5.8-5.6-9.3-7.5c-4.6-2.2-9.7-3.4-14.8-3.7
			c-6.5-0.4-13.1,0-19.5,1.3c-4.6,0.9-9.2,1.9-13.8,2.7c-5.6,1-11.3,1.5-17.1,1.5c-0.1,0-0.3,0.1-0.4-0.1c0,0,0-0.1,0-0.1l-3.6,4.5
			l0.6-0.5c0.4-0.4,0.9-0.5,1.4-0.5c3.4,0,6.8,0,10.2-0.1c4.2-0.2,8.3-0.5,12.4-1c3.9-0.5,7.8-1.2,11.7-1.8
			c4.3-0.7,8.6-1.1,12.9-1.2c5.6-0.2,11.2,0.5,16.6,2.1c4.4,1.3,8.4,3.7,11.7,6.8c0.8,0.8,1.5,1.7,2.2,2.7c0.2,0.3,0.3,0.5-0.1,0.8
			l3.6-1.4c-0.3,0-0.6,0.1-0.9,0.2C97.6,98.4,97.4,98.3,97.3,98L97.3,98z"/>
		<path class="st1" d="M105.3,99c2.7-3.6,6.2-6.4,10.3-8.3c4-1.8,8.3-2.9,12.6-3.3c4.9-0.4,9.8-0.3,14.7,0.2
			c5.5,0.6,11,1.6,16.5,2.3c4.4,0.6,8.7,1,13.1,1.1c3.6,0.1,7.3,0.2,10.9,0.1c0.8-0.1,1.5,0.2,2.1,0.8l-2.7-3.8
			c-0.2-0.2-0.5-0.3-0.7-0.3c-0.3,0-0.6,0-0.9,0c-3.8,0.1-7.5-0.1-11.2-0.7c-5.7-0.7-11.4-1.8-17-3c-4-0.9-8-1.5-12.1-1.8
			c-5.8-0.5-11.7-0.1-17.4,1.1c-3,0.7-5.9,1.7-8.6,3.2c-2.4,1.4-4.5,3-6.4,5c-1.9,1.7-3.5,3.7-4.8,5.9c-0.2,0.4-0.6,0.6-1,0.5
			l2.7,1.3C105.2,99.4,105.1,99.3,105.3,99L105.3,99z"/>
		<path class="st1" d="M97.3,98c-0.9-1.5-1.9-2.9-3.1-4.2c-2.6-3.1-5.8-5.6-9.3-7.5c-4.6-2.2-9.7-3.4-14.8-3.7
			c-6.5-0.4-13.1,0-19.5,1.3c-4.6,0.9-9.2,1.9-13.8,2.7c-5.6,1-11.3,1.5-17.1,1.5c-0.1,0-0.3,0.1-0.4-0.1c0,0,0-0.1,0-0.1l-3.6,4.5
			l0.6-0.5c0.4-0.4,0.9-0.5,1.4-0.5c3.4,0,6.8,0,10.2-0.1c4.2-0.2,8.3-0.5,12.4-1c3.9-0.5,7.8-1.2,11.7-1.8
			c4.3-0.7,8.6-1.1,12.9-1.2c5.6-0.2,11.2,0.5,16.6,2.1c4.4,1.3,8.4,3.7,11.7,6.8c0.8,0.8,1.5,1.7,2.2,2.7c0.2,0.3,0.3,0.5-0.1,0.8
			l3.6-1.4c-0.3,0-0.6,0.1-0.9,0.2C97.6,98.4,97.4,98.3,97.3,98L97.3,98z"/>
		<path class="st2" d="M30.9,72.1c0.9-0.3,1.8-0.6,2.8-0.8c2.8-0.9,5.4-2.2,7.9-3.9c2.3-1.4,4.4-3.2,6.6-4.9
			c1.9-1.6,4.1-2.9,6.4-3.9c3.5-1.3,7.3-1.5,11-0.8c7.3,1.3,13.9,5.1,18.8,10.7c1.2,1.5,2.2,3.1,3.1,4.8c0.1,0.1,0.1,0.2,0.1,0.3
			c-0.2,0-0.3-0.1-0.5-0.2c-4.2-3.2-9-5.4-14.2-6.4c-4-0.8-8-1.1-12.1-0.8c-5.5,0.5-10.9,1.6-16.1,3.5c-2.5,0.8-5.1,1.5-7.7,1.9
			C35.1,71.8,33,72,30.9,72.1L30.9,72.1z"/>
		<path class="st2" d="M170.9,78.8c-5.2-0.7-10.3-1.8-15.4-2.9c-4.6-1.1-9.2-2-13.9-2.5c-4.1-0.4-8.1-0.3-12.2,0.4
			c-2.8,0.4-5.5,1.2-8.1,2.3c-5.5,2.6-10.1,6.6-13.6,11.5c-0.3,0.5-0.6,1-1,1.4c0.3-0.1,0.6-0.3,0.8-0.6c2.7-2.6,5.8-4.8,9.2-6.5
			c4.5-2.2,9.4-3.5,14.4-4c4.1-0.4,8.1-0.3,12.2,0.4c2.4,0.4,4.9,0.8,7.3,1.3c3.6,0.7,7.2,1.5,10.9,2.1c5.1,0.9,10.3,1.4,15.5,1.3
			c0.3,0,0.5,0.1,0.7,0.3l-3.4-4.5C173.1,78.9,172,78.9,170.9,78.8L170.9,78.8z"/>
		<path class="st2" d="M23.3,84c0.6-0.4,1.3-0.7,2-0.8c5,0,9.9-0.5,14.8-1.4c4.5-0.8,9-1.9,13.5-2.6c2.7-0.5,5.5-0.9,8.2-1.2
			c5.3-0.3,10.5,0.3,15.6,1.7c5,1.4,9.6,3.7,13.6,7c0.9,0.8,1.8,1.5,2.7,2.3c-0.5-0.9-1.1-1.8-1.8-2.7c-2.6-3.5-5.9-6.5-9.7-8.7
			c-5-3.1-10.7-3.9-16.4-4.3c-4.1-0.2-8.2,0.2-12.3,1c-4.8,0.8-9.5,2.1-14.3,3.1c-3.5,0.8-7.1,1.3-10.7,1.6
			C28.5,78.9,21.8,85,23.3,84L23.3,84z"/>
		<path class="st2" d="M127.9,15c-10.5-0.3-18.8,7.7-23.2,16.6l-0.2,0C100.4,19.1,90.2,7,76.4,5.4c-0.2,0.3-0.3,0.3-0.5,0
			C53.4,4.9,55,27.7,65.9,41.1c10,15,28.4,24.3,32,43.1c1.5,1.4,2.6-2.8,2.6-3.9c1.5-11-7.6-19.6-14.2-27
			c-6.9-7.1-14-14.5-18.6-23.4C63.5,21,61.4,8.2,75.1,9.5c14.4,1.9,27.7,15.5,27.7,30.2c1.2,0.3,2.4,0.1,2.5-1.3
			c0.6-4.8,3.6-9,6.7-12.7c7.6-9.5,23.3-11.1,24.8,3.5c0.6,18.2-17.1,31.1-31.8,38.5v0.1c6,1,13.3-5.1,18.3-8.2
			c10.4-7.6,20.1-20.3,18.3-33.5C140.4,19.9,134.4,15.2,127.9,15L127.9,15z"/>
		<path class="st2" d="M137.9,63.6c-0.4-1.2,0.3-2.5,1.6-2.9c0,0,0.1,0,0.1,0c1.2-0.4,2.5,0.2,2.9,1.4c0,0,0,0.1,0,0.1
			c0.5,1.5-0.2,2.5-1.7,2.9c-1.2,0.4-2.4-0.2-2.8-1.3C137.9,63.7,137.9,63.6,137.9,63.6L137.9,63.6z"/>
		<path class="st2" d="M155.2,60.9c-0.9,0.2-1.8-0.3-2.1-1.2c0,0,0-0.1,0-0.1c-0.2-0.9,0.4-1.7,1.2-1.9c0.8-0.2,1.5,0.3,1.8,1
			C156.5,59.6,156.1,60.5,155.2,60.9L155.2,60.9z"/>
		<path class="st2" d="M48.1,31.8c-2.1-0.1-3.2-1.1-3.2-3c-0.2-1.6,1-3,2.6-3.2c0.2,0,0.4,0,0.6,0c1.6-0.1,2.9,1.2,2.9,2.7
			c0,0.2,0,0.3,0,0.5c0.1,1.5-1,2.9-2.5,3C48.3,31.8,48.2,31.8,48.1,31.8L48.1,31.8z"/>
		<path class="st3" d="M200.5,101.6c-2-1.8-3.7-3.8-5.6-5.7c-2.7-2.7-5.5-5.2-8.2-7.8c-3-2.8-6-5.7-8.9-8.6
			c-0.5-0.5-1.2-0.7-1.9-0.7h-1.6c0,0,10.7,15.4,12.1,16.7c-0.6,0.2-8.8,0.2-14,0c-5.1-0.1-10.3-0.4-15.4-1
			c-4.2-0.5-8.4-1.2-12.7-1.8c-4.7-0.6-9.5-0.8-14.2-0.4c-4.8,0.2-9.5,1.5-13.7,3.8c-2.9,1.7-5.4,4-7.3,6.7
			c-0.1,0.2-0.1,0.4-0.4,0.4s-0.2-0.3-0.3-0.4c-1.2-2.2-1.1-3.5-5.3-5c-4.3-1.3-8.9,0.8-10.7,4.9c-0.2,0.4-0.3,0.5-0.6,0.1
			c-0.9-1.3-1.9-2.5-3.2-3.5c-1.5-1.4-3.1-2.5-4.8-3.6c-3.2-1.5-6.5-2.5-10-3c-4-0.5-8.1-0.7-12.2-0.4c-4,0.2-7.9,0.8-11.8,1.4
			c-5,0.8-10,1.4-15,1.7c-6.9,0.4-13.8,0.5-20.7,0.2c-0.3,0-0.6,0-0.9-0.1c0.6-0.5,15.2-16.8,15.2-16.8c-1,0-1.9,0.1-2.9,0
			c-0.7,0-1.4,0.3-1.9,0.9c-2.9,2.7-5.8,5.4-8.6,8.2c-3.9,3.8-8,7.4-11.7,11.4c-0.8,1-1.7,1.9-2.7,2.9H1c5.2-0.1,10.4,0.3,15.6,0.3
			c1.5-0.1,2.9,0,4.3,0.2c1.4,0.3,2.9,0.4,4.4,0.4c3.1-0.2,6.1-0.2,9.2,0c8.5,0.3,17.1,0.5,25.6,0.5c6,0,12,0,18,0.5
			c1.9,0.1,3.8,0.4,5.6,1.1c1.5,0.7,2.9,1.8,3.8,3.2c1.3,1.9,3.3,3.3,5.5,4c1.3,0.4,2.4,0.8,3.9,0.2s3.3-0.3,5-0.3
			c2.1,0,4.2,0.1,6.2,0c1.5,0,2.9-0.6,3.9-1.7c0.7-0.8,1.4-1.7,2.1-2.6c1.3-1.8,3.2-2.9,5.4-3.3c3.6-0.5,7.2-0.8,10.9-0.8
			c8-0.2,15.9-0.2,23.9-0.5c7.5-0.3,14.9-0.4,22.4-0.6c7.8-0.2,15.6-0.3,23.5-0.5c0.2,0,0.4,0.1,0.5-0.1S200.6,101.7,200.5,101.6
			L200.5,101.6z"/>
		<path class="st3" d="M149.5,57c-1.8,0.2-3-0.5-3.4-2c-0.5-1.2,0.1-2.6,1.4-3.1c0.2-0.1,0.4-0.1,0.6-0.1c1.7-0.4,2.6,0.7,3,2.2
			S150.5,56.4,149.5,57L149.5,57z"/>
		<path class="st3" d="M38.8,28.7c-0.2,1.3-0.7,2.4-2.2,2.4c-1.1,0.1-2.2-0.7-2.3-1.9c0-0.1,0-0.2,0-0.3c-0.2-1.1,0.6-2.1,1.7-2.3
			c0.1,0,0.3,0,0.4,0C37.6,26.5,38.7,27.5,38.8,28.7L38.8,28.7z"/>
		<path class="st3" d="M49.8,44.8c0.9-0.1,1.7,0.5,1.8,1.3c0,0.1,0,0.2,0,0.2c0.2,1-0.4,1.9-1.4,2.1c-0.1,0-0.1,0-0.2,0
			c-0.9,0.1-1.8-0.5-2-1.4c0-0.1,0-0.2,0-0.3C47.8,45.6,48.6,45,49.8,44.8z"/>
		<rect x="0.6" y="4.8" class="st4" width="200.1" height="108.4"/>
	</g>
	<g class="st5">
		<path class="st6" d="M307.6,12.2c0,5.5-1.8,11.3-5.4,17.3c-3.6,6-8.5,11.3-14.8,15.7c-6.3,4.5-12.8,7.3-19.5,8.4
			c-3.9,7.8-6.6,13.2-8.4,16.3l-2,3.2c12.5,3.1,22.9,7.8,31.2,14.2c4.2,3.2,7,7.2,8.5,11.9c0.8,2.4,1.1,4.5,1.1,6.2s-0.3,3.1-1,4.3
			c-0.7,1.2-1.4,2-2.3,2.4c-0.9,0.4-1.5,0.7-1.9,0.7s-0.6-0.2-0.6-0.5c0-0.3,0.4-1.3,1.1-2.8c0.7-1.6,1.1-3.4,1.1-5.5
			s-0.4-4.4-1.3-6.9c-0.9-2.5-2.5-4.9-4.9-7c-2.4-2.1-5.7-4.1-10-6s-8-3.2-11.1-4c-3.1-0.8-7.3-1.7-12.6-2.7
			c-5.4,7.5-11,12.7-16.8,15.5c-3.5,1.7-6.6,2.6-9.3,2.6c-2.7,0-5.1-0.5-7.2-1.6c-3.6-1.8-5.4-4.5-5.4-8.1c0-3.6,2.4-6.8,7.1-9.5
			c5.4-3.2,12.7-4.8,21.8-4.8c3.3,0,6.3,0.3,8.9,0.8c2.9-4.4,6.2-10.5,10-18.3c-0.4,0-0.7,0-1,0c-4,0-7.7-0.7-11.1-2
			c-3.4-1.3-6.1-3.1-8.2-5.4c-2.7-3-4-6.3-4-10.1c0-2,0.5-4.1,1.5-6.4c1-2.3,3.2-4.6,6.6-6.9c3.4-2.3,7.7-4.1,12.9-5.3
			c0.8-0.2,1.5-0.3,2.1-0.3s0.9,0.2,1,0.5c0.1,0.3-0.1,0.6-0.8,0.9c-0.6,0.3-1.4,0.4-2.2,0.6c-2.7,0.3-5.3,1.2-7.6,2.8
			c-4.1,2.6-6.9,6.6-8.5,12c-0.4,1.3-0.6,2.5-0.6,3.7c0,1.2,0.2,2.6,0.7,4.2c0.4,1.6,1.4,3.3,2.9,5.1c1.5,1.7,3.4,3,5.9,3.7
			c2.5,0.7,4.7,1,6.6,1c1.9,0,3.6-0.1,5.2-0.3l8.1-20.3c5.6-14.3,12.2-23.1,20-26.4c2-0.8,4-1.2,5.9-1.2c1.9,0,3.8,0.6,5.5,1.9
			c1.7,1.2,2.7,2.7,2.8,4.5C307.5,10.7,307.6,11.5,307.6,12.2z M250.9,76.9c-3.1-0.7-6.3-1-9.6-1c-3.3,0-6.7,0.5-10.2,1.4
			c-7.3,1.9-11.6,4.6-12.8,8.1c-0.3,0.6-0.4,1.2-0.4,1.8c0,1.6,0.9,3,2.7,4c1.8,1,3.8,1.6,5.9,1.6c3,0,6.2-0.8,9.7-2.5
			C241.6,87.7,246.4,83.3,250.9,76.9z M303.6,12.3c0-2.4-1.1-3.6-3.3-3.6c-3.2,0-7.2,2.8-11.8,8.5c-3.6,4.5-7.1,9.9-10.4,16.3
			c-3.3,6.4-6.3,12.2-8.9,17.6c8.8-2,16.7-6.8,23.8-14.5C300,28.8,303.6,20.7,303.6,12.3z"/>
		<path class="st6" d="M306.9,51.1c4.6,0,6.9,2.9,6.9,8.7c0,2.7-0.7,5.5-2.1,8.5c-1.8,4.1-4.4,7.9-8,11.2c0.8,1.6,2.3,2.4,4.5,2.4
			c1.7,0,3.3-0.9,4.8-2.6c1.9-2,3.3-3.7,4.1-5.2c0.8-1.5,1.4-2.6,1.8-3.3c0.4-0.7,0.9-1.7,1.5-3c0.6-1.3,1-2.1,1.1-2.4
			c0.1-0.3,0.3-0.4,0.7-0.4c0.6-0.1,1,0.2,1,0.7c0,0.2-0.1,0.4-0.2,0.7l-0.6,1.3c-0.4,0.9-0.7,1.5-0.9,1.9s-0.5,1.1-1,2
			c-0.5,1-0.9,1.8-1.2,2.3c-0.3,0.6-0.8,1.3-1.4,2.3c-0.6,1-1.1,1.7-1.6,2.3c-0.5,0.6-1.1,1.2-1.8,1.9c-0.7,0.7-1.4,1.2-2,1.6
			c-1.6,0.9-3.1,1.4-4.5,1.4c-2.6,0-4.6-0.8-6.1-2.5c-2.9,2.2-5.6,3.2-8.1,3.2c-4.6,0-6.9-2.9-6.9-8.7c0-2.7,0.7-5.5,2.1-8.5
			c1.9-4.4,4.6-8.2,8-11.3C300.5,52.7,303.8,51.1,306.9,51.1z M307.9,54.1c-1.7,0-3.7,1.1-6.1,3.4c-2.3,2.3-4.4,5.4-6.3,9.3
			c-2.2,4.6-3.3,8.3-3.3,11.2c0,2.9,1.1,4.4,3.3,4.4c1.6,0,3.4-0.9,5.3-2.6c-1-1.5-1.5-3-1.5-4.7c0.1-2.7,1.2-4.1,3.3-4.1
			c0.8,0,1.5,0.3,2,0.9c0.5,0.6,0.8,1.1,0.8,1.6c0,0.5-0.1,1-0.2,1.5c1.1-1.6,2.3-3.8,3.7-6.7c1.6-3.2,2.4-6.4,2.4-9.5
			C311.4,55.6,310.3,54.1,307.9,54.1z"/>
		<path class="st6" d="M346.7,51.2l-0.5,1.7C343,63,340,70.3,337.3,75c-4,6.7-8.2,10.1-12.5,10.1c-3.5,0-5.3-1.7-5.3-5.1
			c0-2.6,1-6.6,2.9-12.1c-0.6,1-1.1,1.3-1.5,1c-0.3-0.3-0.4-0.8-0.2-1.3l1.7-3.2c1.2-2.5,1.8-4.9,1.8-7.4s-0.5-3.9-1.5-4.4
			c3.8-0.6,6-0.9,6.6-0.9c0.6,0,1,0.3,1.2,0.8c0.2,0.5,0.2,1.1,0.2,1.7c0,3.9-1,8.4-3,13.7c-2,5.3-3,8.8-3,10.6s0.3,2.8,0.9,3.1
			s1.1,0.4,1.7,0.4c1.6,0,3.5-1.3,5.6-4s4.2-6.6,6.3-11.8c-0.9-2-1.3-3.8-1.3-5.4c0-1.6,0.2-2.9,0.6-4.1c1.1-3.6,2.9-5.9,5.4-6.7
			c0.5-0.2,1-0.3,1.4-0.3C346.2,49.7,346.7,50.2,346.7,51.2z"/>
		<path class="st6" d="M350.5,69.7c-0.9,2.2-1.3,4.6-1.3,7.2c0,1.8,0.4,3.2,1.2,4.2c0.8,1,1.9,1.6,3.4,1.6c5.8,0,11-5.4,15.7-16.2
			c0.4-1,1-1.5,1.6-1.3c0.3,0.1,0.4,0.2,0.4,0.5c0,0.3-0.7,1.9-2.1,5c-1.4,3.1-2.9,5.6-4.3,7.5c-3.2,4.4-7.2,6.6-12,6.6
			c-2.5,0-4.7-0.8-6.5-2.5c-1.8-1.6-2.7-3.9-2.7-6.7s0.7-5.9,2-9.1c1.4-3.2,3.2-6.2,5.6-8.9c2.3-2.8,5-4.8,8.1-6
			c1.5-0.6,2.8-1,4.2-1s2.6,0.4,3.7,1.1c1.1,0.9,1.6,1.9,1.6,2.9c0,3.8-2.3,7.4-6.8,10.9c-1.4,1.1-3.4,2-5.9,2.9
			C353.8,69.3,351.8,69.7,350.5,69.7z M366.5,54.5c0-1.3-0.5-1.9-1.5-1.9c-1.8,0-4.5,2.2-8.1,6.6c-2.2,2.7-4.1,5.6-5.7,8.9
			c1.1,0,2.6-0.4,4.7-1.1c2.1-0.8,3.8-1.8,5.4-3C364.7,61,366.5,57.8,366.5,54.5z"/>
		<path class="st6" d="M483.2,83.6c-2.9,3.1-6.1,4.7-9.8,4.7s-7.3-1.8-10.7-5.4s-6.3-8.7-8.5-15.3c-2.3-6.6-3.9-12.6-4.8-17.9
			c-2,4.1-3.6,7.1-4.8,9.3c-1.1,2.1-2.8,4.8-5,8.1c-2.2,3.3-4.5,6.3-6.9,8.9c-7.5,8-15.9,12.1-25.4,12.1c-8.5,0-13.9-2.3-16-6.9
			c-0.5-1.1-0.8-2.3-0.8-3.8s0.7-3,2.2-4.6c2.3-2.6,5.6-3.9,9.7-3.9c2.8,0,5.7,0.5,8.8,1.6c0.8,0.3,1.1,0.7,1,1
			c-0.2,0.4-1,0.3-2.5-0.3c-1.5-0.6-3.2-0.9-5.3-0.9c-2.1,0-3.8,0.8-5.3,2.4c-1.5,1.6-2.2,3.2-2.2,4.9c0,0.8,0.2,1.6,0.5,2.5
			c1.3,3.3,4.2,4.9,8.9,4.9c5.2,0,9.8-1.6,13.8-4.7c2.3-1.8,4.3-3.6,6.2-5.4c1.8-1.8,3.8-4.3,5.9-7.4c3.3-4.8,6.1-9.2,8.4-13.3
			c2.3-4.1,4.8-8.5,7.5-13.4c2.7-4.8,4.7-8.4,5.9-10.6c4.1-6.9,7.8-12.2,11.1-15.9c-3.5-0.3-7.1-0.5-10.6-0.5
			c-8.1,0-16.2,0.8-24.2,2.5c-8,1.7-14.4,4.5-19,8.3c-5.9,4.9-8.8,10.1-8.8,15.6c0,2.7,1,5,2.8,7.1c1.9,2.1,4.5,3.1,7.7,3.1
			c3.9,0,7.2-1.4,9.8-4.2c2.6-2.8,4-5,4.1-6.6c0.1-0.8,0.3-1.2,0.6-1.2c0.5,0,0.7,0.5,0.7,1.4c-0.4,3-1.7,5.6-3.7,7.7
			c-3.5,3.7-7.8,5.5-12.7,5.5c-3.7,0-7-1.3-9.7-3.8c-2.8-2.5-4.1-5.9-4.1-10.2c0-6.3,3.1-11.9,9.2-16.9c6.1-5,14.1-8.2,24.1-9.6
			c7.1-1,13.6-1.5,19.6-1.5c6,0,11.5,0.3,16.6,1c1.6-1.8,2.8-2.7,3.4-2.7c0.4,0,0.6,0.3,0.6,0.9c0,0.6-0.2,1.3-0.5,2.2
			c4.7,0.8,7.8,1.4,9.4,1.8c9.5,2.8,14.2,7.1,14.2,12.9c0,3.7-2.3,7.4-6.9,11.1c-5.8,4.5-13.6,7.5-23.4,9.1
			c-2.8,0.4-5.7,0.7-8.7,0.9c2,11.2,5.5,20.6,10.5,28.3c1.7,2.6,3.3,4.5,4.7,5.7c1.4,1.2,3,1.8,4.6,1.8c2.3,0,4.7-1.3,7.3-3.8
			c2.6-2.5,5.5-7.2,8.9-13.9c0.5-1,1-1.4,1.5-1.4s0.5,0.5,0.1,1.4C489.3,74.8,486.1,80.5,483.2,83.6z M487.6,26c0-0.5-0.1-1-0.2-1.5
			c-0.7-3.5-3.5-6.1-8.5-7.6c-1.5-0.4-4.6-1-9.3-1.8c-1.1,2-3.9,6.6-8.4,13.8c-4.4,7.2-7.7,13-9.9,17.2c1.4-0.3,3.4-0.5,6.1-0.7
			c2.7-0.2,4.6-0.4,5.8-0.5c7.2-0.9,13.4-3.7,18.4-8.5C485.6,32.8,487.6,29.4,487.6,26z"/>
		<path class="st6" d="M495.7,69.7c-0.9,2.2-1.3,4.6-1.3,7.2c0,1.8,0.4,3.2,1.2,4.2c0.8,1,1.9,1.6,3.4,1.6c5.8,0,11-5.4,15.7-16.2
			c0.4-1,1-1.5,1.6-1.3c0.3,0.1,0.4,0.2,0.4,0.5c0,0.3-0.7,1.9-2.1,5c-1.4,3.1-2.9,5.6-4.3,7.5c-3.2,4.4-7.2,6.6-12,6.6
			c-2.5,0-4.7-0.8-6.5-2.5c-1.8-1.6-2.7-3.9-2.7-6.7s0.7-5.9,2-9.1c1.4-3.2,3.2-6.2,5.6-8.9c2.3-2.8,5-4.8,8.1-6
			c1.5-0.6,2.9-1,4.2-1c1.3,0,2.6,0.4,3.7,1.1c1.1,0.9,1.6,1.9,1.6,2.9c0,3.8-2.3,7.4-6.8,10.9c-1.4,1.1-3.4,2-5.9,2.9
			C499,69.3,497.1,69.7,495.7,69.7z M511.7,54.5c0-1.3-0.5-1.9-1.5-1.9c-1.8,0-4.5,2.2-8.1,6.6c-2.2,2.7-4.1,5.6-5.7,8.9
			c1.1,0,2.6-0.4,4.7-1.1c2.1-0.8,3.8-1.8,5.4-3C510,61,511.7,57.8,511.7,54.5z"/>
		<path class="st6" d="M539,66.4c-2.1,4-3.3,7-3.8,9c-0.4,2-0.6,3.6-0.6,4.8c0,1.2,0.5,1.9,1.4,1.9c1.2,0,2.7-1.1,4.5-3.3
			c2.6-3.2,5.2-7.4,7.7-12.6c0.3-0.6,0.5-0.9,0.9-1c0.5-0.2,0.8,0,0.8,0.6c0,0.3-0.1,0.7-0.3,1.1c-5.8,11.8-10.7,17.7-14.7,17.7
			c-1.8,0-3.3-0.9-4.5-2.7c-0.6-1-0.9-2.2-0.9-3.8s0.3-3.5,0.9-5.8c-5.1,8.2-9.4,12.3-13.1,12.3c-1,0-1.9-0.3-2.8-1
			c-1.9-1.3-2.9-3.6-2.9-6.8c0-6.2,2.7-12.5,8.1-18.9c3-3.5,6.8-5.9,11.2-6.9c1.2-0.3,2.3-0.5,3.4-0.5c2.9,0,5.4,1,7.4,3
			c0.6,0.7,0.8,1.4,0.6,2c-0.3,0.6-0.8,0.9-1.6,0.8c-0.7-2.3-2.2-3.4-4.6-3.4c-2.7,0-6.1,2.2-10.1,6.5c-2.3,2.5-4.4,5.5-6.4,8.9
			c-2.5,4.1-3.7,7.4-3.7,9.9c0,2.5,0.8,3.7,2.4,3.7c3.8,0,8.8-5.8,14.9-17.5c1.2-2.3,2.2-3.9,3-4.8c0.8-0.9,1.9-1.3,3.1-1.3
			c0.3,0,0.9,0.1,1.9,0.3c1,0.2,1.8,0.2,2.3,0.1C542.7,59.8,541.1,62.3,539,66.4z"/>
		<path class="st6" d="M568.2,78.8c0,2,0.8,3,2.5,3c3,0,6.9-5,11.9-14.9c0.2-0.4,0.4-0.8,0.5-1.1c0.2-0.4,0.4-0.6,0.8-0.8
			c0.3-0.1,0.6,0,0.7,0.2c0.1,0.3,0.1,0.7-0.2,1.4c-5.1,11.8-10.2,17.7-15.4,17.7c-1.7,0-3.1-0.8-4.1-2.3c-1-1.5-1.5-3-1.5-4.5
			c0-1.5,0.2-2.9,0.5-4.1c-3.7,6.1-6.8,9.5-9.5,10.4c-0.8,0.3-1.5,0.5-2.2,0.5c-0.7,0-1.4-0.1-2.1-0.3c-3.1-0.8-4.7-3.3-4.7-7.4
			c0-2.8,0.7-5.9,2.1-9.3c1.4-3.4,3.4-6.6,6-9.7c2.6-3.1,5.7-5.2,9.4-6.3c1.3-0.4,2.9-0.7,4.7-0.7c1.8,0,3.8,0.6,6,1.7
			c4.3-8.1,8-15.6,11-22.5c0.9-2.1,1.8-3.4,2.6-4c0.9-0.6,1.6-0.9,2.4-0.9c0.7,0,1.2,0,1.3,0c0.2,0,0.8,0.1,1.8,0.2
			c1,0.2,1.9,0.2,2.4,0.1c-1.5,1.3-5.3,7.8-11.6,19.4c-8,14.8-12.8,24.7-14.4,29.6C568.5,76.1,568.2,77.6,568.2,78.8z M572.9,53.9
			c-0.8-0.8-2-1.2-3.5-1.2c-1.5,0-3.6,1.1-6.2,3.3c-4.2,3.5-7.8,7.9-10.5,13.1c-1.8,3.4-2.8,6.2-2.8,8.5c0,1,0.2,1.9,0.6,2.8
			c0.4,0.8,1.1,1.2,1.9,1.2c2.2,0,4.8-2.2,8-6.7C563.6,70.4,567.8,63.4,572.9,53.9z"/>
		<path class="st6" d="M586.8,82.3c1.2,0,2.5-0.6,3.8-1.8c2.3-2.3,5.3-7.1,8.9-14.3c0.4-1,0.9-1.2,1.3-0.9c0.1,0.1,0.2,0.3,0.2,0.6
			s-0.3,1-0.8,2.1c-0.5,1.1-1,2.1-1.4,3c-0.4,0.9-1.2,2.3-2.4,4.3c-1.2,2-2.2,3.5-3.2,4.6c-2.6,3-5.1,4.5-7.4,4.5
			c-2.3,0-4-0.7-5-2.1c-1-1.4-1.5-2.9-1.5-4.7s0.4-3.6,1.2-5.6l6.1-15.5c0.1-0.4,0.2-0.9,0.2-1.5c0-0.6-0.4-1.5-1.1-2.5l5.2-0.1
			c1.5,0,2.3,0.3,2.6,0.8c0.3,0.5,0.1,1.4-0.6,2.5l-7.6,17.8c-1.1,2.3-1.6,4.3-1.6,6C583.8,81.3,584.8,82.3,586.8,82.3z M596.1,47.4
			c-0.9,0.8-1.9,1.1-2.9,1.1c-1.1,0-1.9-0.4-2.6-1.1c-0.6-0.8-0.9-1.7-0.8-2.8c0.2-1.1,0.7-2,1.6-2.8c0.9-0.8,1.9-1.1,2.9-1.1
			c1.1,0,1.9,0.4,2.6,1.1s0.9,1.7,0.7,2.8C597.5,45.7,596.9,46.6,596.1,47.4z"/>
		<path class="st6" d="M628.3,53.2c-7.8,13.7-11.7,22.6-11.7,26.8c0,1.6,0.6,2.5,1.8,2.5c3.2,0,7.6-5.5,13-16.4
			c0.4-0.9,0.8-1.2,1.1-1c0.4,0.2,0.6,0.4,0.6,0.8c0,0.3-0.1,0.7-0.4,1.1c-3.4,6.8-6.2,11.4-8.5,14c-2.3,2.6-4.6,3.8-6.9,3.8
			c-2.3,0-4.1-0.9-5.3-2.7c-0.6-0.8-0.9-1.9-0.9-3.4s0.3-3.2,0.9-5.2c0.6-2,2.4-5.3,5.2-9.9c0.7-1.1,1-2,1-2.7c0-0.7-0.5-1-1.6-1
			c-1.1,0-3.1,1.4-6.2,4.3c-4.6,4.2-9,10.4-13.2,18.8c-0.4,0.6-0.8,1-1.3,1.2c-0.5,0.2-1.4,0.3-2.8,0.3c-1.4,0.1-2.3,0.2-2.8,0.5
			c1-2,3-6.2,6-12.4c5.3-11.1,8.8-17.4,10.5-19c0.8-0.8,1.8-1.1,3.1-1.1c0.3,0,0.9,0.1,1.9,0.3c1,0.2,1.8,0.2,2.3,0.1
			c-2.3,1.3-6.2,7.2-11.5,17.9c3-3.7,5.7-6.6,8.1-8.8c2.4-2.2,5.4-4.2,8.8-6.1c3.4-1.9,5.9-2.8,7.5-2.8
			C627.6,53,627.9,53.1,628.3,53.2z"/>
		<path class="st6" d="M624.8,114.4c-6,0-8.9-2.4-8.9-7.3c0-4.1,2.8-7.7,8.3-10.9c4.7-2.7,10.7-5.3,18-7.7c3.4-1.1,5.8-1.9,7.3-2.6
			c1.6-4.8,2.5-10.1,2.5-15.8c0-1.1-0.1-2-0.2-2.6c-1.8,3.6-4.2,7.3-7.3,11.1c-3.7,4.6-7.3,6.3-10.9,5.3c-3.3-1.4-4.9-4.1-4.9-8.2
			c0-5.4,2.7-11.4,8.2-18c3-3.5,6.5-5.8,10.5-6.7c1.1-0.3,2.2-0.5,3.2-0.5c2.8,0,5.6,0.9,8.4,2.8c1,0.8,1.5,1.5,1.5,2.1
			s-0.2,1.1-0.6,1.7s-0.8,0.6-1.2,0.2c-0.4-0.4-0.7-0.8-0.8-1.2c-0.8-2.3-2.2-3.5-4-3.5c-3.4,0-7.1,2.3-11.3,7
			c-2.3,2.7-4.4,5.5-6.1,8.6c-2.1,3.8-3.1,6.7-3.1,8.8c0,2.1,0.6,3.4,1.9,4.1c0.4,0.2,0.9,0.3,1.3,0.3c1.5,0,3.3-1,5.5-3
			c2.2-2,4.2-4.5,6.1-7.6c1.9-3.1,3.1-5.5,3.6-7.2c0.5-1.7,1.1-2.8,1.9-3.2c0.7-0.4,1.5-0.7,2.4-0.8c0.9-0.1,1.5-0.2,1.8-0.5
			c0.5,2.8,0.8,6.2,0.8,10c0,3.8-0.7,8.2-2,13.1c2.9-2.1,5-4,6.2-5.6c1.2-1.6,2.2-3.1,2.9-4.5c0.7-1.3,1.4-2.6,1.9-3.9
			c0.6-1.3,1-2.1,1.1-2.5c0.2-0.4,0.5-0.6,1-0.7c0.4-0.1,0.7,0.1,0.7,0.6c0,0.3-0.1,0.7-0.3,1.1c-2.8,5.8-5.1,9.9-7,12.5
			c-1.9,2.6-4.4,4.6-7.6,6.1c-1.5,4.3-3.7,8.6-6.6,12.8c-2.9,4.2-6.5,8-10.9,11.2C633.5,112.8,629.2,114.4,624.8,114.4z
			 M617.9,108.9c0,2.4,1.6,3.6,4.7,3.6c1.8,0,3.9-0.5,6.2-1.6c2.3-1.1,4.2-2.2,5.7-3.3c2.6-2.1,5.4-5.2,8.5-9.3
			c2.3-3.3,4.1-6.5,5.4-9.6l-3.3,1.1c-9.9,3.4-16.8,6.5-20.9,9.1c-3,2-4.9,4.5-5.9,7.5C618.1,107.3,617.9,108.2,617.9,108.9z"/>
	</g>
</g>
</svg>
