<?xml version="1.0" encoding="utf-8"?>
<!-- Generator: Adobe Illustrator 27.4.1, SVG Export Plug-In . SVG Version: 6.00 Build 0)  -->
<svg version="1.1" id="Layer_2_00000067945692363439605340000007097949369084894859_"
	 xmlns="http://www.w3.org/2000/svg" xmlns:xlink="http://www.w3.org/1999/xlink" x="0px" y="0px" viewBox="0 0 100 73.7"
	 style="enable-background:new 0 0 100 73.7;" xml:space="preserve">
<style type="text/css">
	.st0{fill:#F8FAE5;}
</style>
<g>
	<path class="st0" d="M55.1,38.6H44.9c-8,0-14.4,6.5-14.4,14.4v16.5c12.6,4.6,26.4,4.6,39.1,0V53C69.6,45.1,63.1,38.6,55.1,38.6z"/>
	<path class="st0" d="M61.9,22.1c0,0.4,0,0.8-0.1,1.2s-0.1,0.8-0.2,1.2c-0.1,0.4-0.2,0.8-0.3,1.1s-0.2,0.8-0.4,1.1s-0.3,0.7-0.5,1.1
		s-0.4,0.7-0.6,1s-0.5,0.6-0.7,1c-0.2,0.3-0.5,0.6-0.8,0.9s-0.6,0.5-0.9,0.8s-0.6,0.5-1,0.7c-0.3,0.2-0.7,0.4-1,0.6
		c-0.3,0.2-0.7,0.4-1.1,0.5c-0.4,0.2-0.7,0.3-1.1,0.4c-0.4,0.1-0.8,0.2-1.2,0.3c-0.4,0.1-0.8,0.1-1.2,0.2c-0.4,0-0.8,0.1-1.2,0.1
		s-0.8,0-1.2-0.1c-0.4-0.1-0.8-0.1-1.2-0.2s-0.8-0.2-1.2-0.3c-0.4-0.1-0.8-0.2-1.1-0.4s-0.7-0.3-1.1-0.5s-0.7-0.4-1-0.6
		c-0.3-0.2-0.7-0.5-1-0.7c-0.3-0.2-0.6-0.5-0.9-0.8c-0.3-0.3-0.5-0.6-0.8-0.9s-0.5-0.6-0.7-1c-0.2-0.3-0.4-0.7-0.6-1
		c-0.2-0.4-0.3-0.7-0.5-1.1s-0.3-0.7-0.4-1.1c-0.1-0.4-0.2-0.8-0.3-1.1s0.2-0.8,0.2-1.2s-0.1-0.8-0.1-1.2c0-0.4,0-0.8,0.1-1.2
		c0.1-0.4,0.1-0.8,0.2-1.2c0.1-0.4,0.2-0.8,0.3-1.1c0.1-0.3,0.2-0.8,0.4-1.1s0.3-0.7,0.5-1.1c0.2-0.4,0.4-0.7,0.6-1
		c0.2-0.3,0.5-0.6,0.7-0.9c0.2-0.3,0.5-0.6,0.8-0.9c0.3-0.3,0.6-0.6,0.9-0.8s0.6-0.5,1-0.7c0.4-0.2,0.7-0.4,1-0.6
		c0.3-0.2,0.7-0.4,1.1-0.5c0.4-0.1,0.7-0.3,1.1-0.4c0.4-0.1,0.8-0.2,1.2-0.3c0.4-0.1,0.8-0.1,1.2-0.2c0.4,0,0.8-0.1,1.2-0.1
		s0.8,0,1.2,0.1c0.4,0.1,0.8,0.1,1.2,0.2c0.4,0.1,0.8,0.2,1.2,0.3c0.4,0.1,0.8,0.2,1.1,0.4c0.3,0.2,0.7,0.3,1.1,0.5
		c0.3,0.2,0.7,0.4,1,0.6c0.3,0.2,0.7,0.5,1,0.7s0.6,0.5,0.9,0.8c0.3,0.3,0.5,0.6,0.8,0.9c0.3,0.3,0.5,0.6,0.7,0.9
		c0.2,0.3,0.4,0.7,0.6,1c0.2,0.4,0.3,0.7,0.5,1.1s0.3,0.7,0.4,1.1c0.1,0.4,0.2,0.8,0.3,1.1s0.1,0.8,0.2,1.2
		C61.8,21.3,61.9,21.7,61.9,22.1z"/>
	<path class="st0" d="M84.7,29.2H74.5c-5.6,0-10.5,3.2-12.9,7.9c6.3,2.5,10.8,8.8,10.8,16v9.9c8.9,1.2,18.2,0.1,26.7-2.9V43.5
		C99.1,35.6,92.7,29.2,84.7,29.2z"/>
	<path class="st0" d="M91.5,12.6c0,0.4,0,0.8-0.1,1.2c-0.1,0.4-0.1,0.8-0.2,1.2c-0.1,0.4-0.2,0.8-0.3,1.1c-0.1,0.3-0.2,0.8-0.4,1.1
		c-0.2,0.3-0.3,0.7-0.5,1.1s-0.4,0.7-0.6,1s-0.4,0.6-0.7,1c-0.2,0.3-0.5,0.6-0.8,0.9s-0.6,0.5-0.9,0.8c-0.3,0.3-0.6,0.5-0.9,0.7
		c-0.3,0.2-0.7,0.4-1,0.6c-0.3,0.2-0.7,0.4-1.1,0.5S83.4,23.9,83,24c-0.4,0.1-0.8,0.2-1.2,0.3c-0.4,0.1-0.8,0.1-1.2,0.2
		s-0.8,0.1-1.2,0.1s-0.8,0-1.2-0.1c-0.4,0-0.8-0.1-1.2-0.2c-0.4-0.1-0.8-0.2-1.2-0.3c-0.4-0.1-0.8-0.2-1.1-0.4s-0.7-0.3-1.1-0.5
		c-0.4-0.2-0.7-0.4-1-0.6c-0.3-0.2-0.7-0.5-0.9-0.7c-0.3-0.2-0.6-0.5-0.9-0.8s-0.5-0.6-0.8-0.9s-0.5-0.6-0.7-1s-0.4-0.7-0.6-1
		s-0.3-0.7-0.5-1.1c-0.2-0.4-0.3-0.7-0.4-1.1s-0.2-0.8-0.3-1.1s-0.1-0.8-0.2-1.2c-0.1-0.4,0.1-0.8,0.1-1.2c0-0.4,0-0.8,0.1-1.2
		c0.1-0.4,0.1-0.8,0.2-1.2c0.1-0.4,0.2-0.8,0.3-1.1c0.1-0.3,0.2-0.8,0.4-1.1C68.9,7.8,69,7.4,69.2,7s0.4-0.7,0.6-1
		c0.2-0.3,0.4-0.7,0.7-0.9c0.2-0.3,0.5-0.6,0.8-0.9s0.6-0.5,0.9-0.8S72.7,3,73,2.8s0.7-0.4,1-0.6s0.7-0.4,1.1-0.5s0.7-0.3,1.1-0.4
		c0.4-0.1,0.8-0.2,1.2-0.3s0.8-0.1,1.2-0.2c0.3-0.1,0.7-0.1,1.1-0.1s0.8,0,1.2,0.1s0.8,0.1,1.2,0.2c0.4,0.1,0.8,0.2,1.2,0.3
		c0.4,0.1,0.8,0.2,1.1,0.4s0.7,0.3,1.1,0.5s0.7,0.4,1,0.6C86.6,3,87,3.3,87.2,3.5C87.4,3.7,87.7,4,88,4.3s0.5,0.6,0.8,0.9
		c0.3,0.3,0.5,0.6,0.7,0.9c0.2,0.3,0.4,0.7,0.6,1c0.2,0.3,0.3,0.7,0.5,1.1c0.2,0.4,0.3,0.7,0.4,1.1c0.1,0.4,0.2,0.8,0.3,1.1
		c0.1,0.4,0.1,0.8,0.2,1.2C91.6,11.8,91.5,12.2,91.5,12.6z"/>
	<path class="st0" d="M38.4,37.1c-2.4-4.7-7.3-7.9-12.9-7.9H15.3c-8,0-14.4,6.5-14.4,14.4V60c8.6,3.1,17.8,4.1,26.7,2.9V53
		C27.6,45.8,32.1,39.6,38.4,37.1z"/>
	<path class="st0" d="M32.3,12.6c0,0.4,0,0.8-0.1,1.2c-0.1,0.4-0.1,0.8-0.2,1.2c-0.1,0.4-0.2,0.8-0.3,1.1c-0.1,0.4-0.2,0.8-0.4,1.1
		c-0.2,0.3-0.3,0.7-0.5,1.1s-0.4,0.7-0.6,1s-0.5,0.6-0.7,1c-0.2,0.3-0.5,0.6-0.8,0.9s-0.6,0.5-0.9,0.8c-0.3,0.3-0.6,0.5-1,0.7
		c-0.4,0.2-0.7,0.4-1,0.6c-0.3,0.2-0.7,0.4-1.1,0.5c-0.4,0.1-0.7,0.3-1.1,0.4c-0.4,0.1-0.8,0.2-1.1,0.3c-0.4,0.1-0.8,0.1-1.2,0.2
		s-0.8,0.1-1.2,0.1s-0.8,0-1.2-0.1c-0.4,0-0.8-0.1-1.2-0.2c-0.4-0.1-0.8-0.2-1.1-0.3c-0.4-0.1-0.8-0.2-1.1-0.4s-0.7-0.3-1.1-0.5
		c-0.4-0.2-0.7-0.4-1-0.6c-0.3-0.2-0.6-0.5-0.9-0.7c-0.3-0.2-0.6-0.5-0.9-0.8s-0.5-0.6-0.8-0.9c-0.3-0.3-0.5-0.6-0.7-1
		s-0.4-0.7-0.6-1c-0.2-0.3-0.4-0.7-0.5-1.1C9.3,16.7,9.2,16.4,9,16c-0.2-0.4-0.2-0.8-0.3-1.2c-0.1-0.4-0.1-0.8-0.2-1.2
		c-0.1-0.4-0.1-0.8-0.1-1.2c0-0.4,0-0.8,0.1-1.2c0.1-0.4,0.2-0.7,0.2-1.1C8.8,10,8.9,9.6,9,9.2c0.1-0.4,0.2-0.8,0.4-1.1
		C9.6,7.8,9.7,7.4,9.9,7c0.2-0.4,0.4-0.7,0.6-1c0.2-0.3,0.4-0.7,0.7-0.9C11.5,5,11.7,4.6,12,4.3c0.3-0.3,0.6-0.5,0.9-0.8
		c0.3-0.3,0.6-0.5,0.9-0.7c0.3-0.2,0.7-0.4,1-0.6s0.7-0.4,1.1-0.5c0.4-0.1,0.7-0.3,1.1-0.4C17.3,1.2,17.7,1.1,18,1s0.8-0.1,1.2-0.2
		c0.5-0.1,0.9-0.1,1.3-0.1s0.8,0,1.2,0.1s0.8,0.1,1.2,0.2s0.8,0.2,1.1,0.3c0.4,0.1,0.8,0.2,1.1,0.4S25.6,2,26,2.2
		c0.4,0.2,0.7,0.4,1,0.6s0.6,0.5,1,0.7c0.3,0.2,0.6,0.5,0.9,0.8s0.5,0.6,0.8,0.9c0.3,0.3,0.5,0.6,0.7,0.9c0.2,0.3,0.4,0.7,0.6,1
		c0.2,0.3,0.4,0.7,0.5,1.1c0.1,0.4,0.3,0.7,0.4,1.1c0.1,0.4,0.2,0.8,0.3,1.1c0.1,0.4,0.1,0.8,0.2,1.2C32.4,11.8,32.3,12.2,32.3,12.6
		z"/>
</g>
</svg>
