<?xml version="1.0" encoding="UTF-8"?>
<svg id="Layer_2" data-name="Layer 2" xmlns="http://www.w3.org/2000/svg" viewBox="0 0 100 79.58">
  <g id="Layer_1-2" data-name="Layer 1">
    <g>
      <path d="m76.65,5.97c-.45-2.94-2.98-5.11-5.95-5.11H8.06l6.54,13.47s7.64,50.2,9.43,61.94c.21,1.4,1.42,2.44,2.84,2.44h57.52c.84,0,1.63-.36,2.18-1,.54-.63.79-1.47.66-2.3-1.85-12.17-8.32-54.66-10.57-69.43Z" style="fill: #f8fae5; fill-rule: evenodd;"/>
      <path d="m70.07,14.32s-6.16-.36-14.02-.6c-2.96-.09-6.15-.18-9.35-.18-3.2,0-6.39.09-9.35.16-7.86.21-14.02.49-14.02.49v2.13s6.16.29,14.02.49c2.96.08,6.15.17,9.35.16,3.2,0,6.39-.09,9.35-.18,7.87-.24,14.02-.6,14.02-.6v-1.89Z" style="fill: #371f1a; fill-rule: evenodd;"/>
      <path d="m62.03,24.9s-4.82-.36-10.98-.6c-2.32-.09-4.82-.18-7.32-.18-2.5,0-5.01.09-7.32.16-6.16.21-10.99.49-10.99.49v2.14s4.82.29,10.99.49c2.32.08,4.82.17,7.32.16,2.5,0,5.01-.09,7.32-.18,6.17-.25,10.98-.6,10.98-.6v-1.89Z" style="fill: #371f1a; fill-rule: evenodd;"/>
      <path d="m52.77,35.27s-3.15-.36-7.21-.6c-1.52-.09-3.16-.18-4.81-.18-1.65,0-3.29.09-4.81.16-4.05.21-7.21.49-7.21.49v2.14s3.16.29,7.21.49c1.52.08,3.16.17,4.81.16,1.65,0,3.29-.09,4.81-.18,4.06-.25,7.21-.6,7.21-.6v-1.89Z" style="fill: #371f1a; fill-rule: evenodd;"/>
      <path d="m14.17,5.61c-.46-2.74-2.83-4.75-5.61-4.75S3.4,2.87,2.95,5.61c-.62,3.72-1.46,8.74-1.95,11.66-.1.59.07,1.2.46,1.66.39.46.96.73,1.57.73h13.49s-1.41-8.48-2.34-14.05Z" style="fill: #371f1a; fill-rule: evenodd;"/>
      <path d="m7.97,0h0s.03,0,.03,0h-.03Zm0,0c-.43.05-.77.41-.77.86,0,.48.39.86.86.86h0c-.05-.09-.97-1.62-.09-1.72Zm.1,1.72h62.64c2.55,0,4.71,1.86,5.1,4.38,2.25,14.77,8.72,57.26,10.57,69.43.09.58-.08,1.16-.46,1.61-.38.44-.94.7-1.52.7H26.86c-.99,0-1.83-.72-1.98-1.7l-8.62-56.61c-.06-.42-.43-.73-.85-.73H3c-.35,0-.68-.15-.9-.42-.23-.26-.32-.61-.27-.95l1.87-11.98c.34-2.15,2.18-3.73,4.36-3.73Zm0-1.73h-.05s.03,0,.05,0C5.03,0,2.46,2.2,1.99,5.19,1.4,8.94.59,14.17.12,17.16c-.13.84.11,1.7.67,2.34.55.65,1.36,1.02,2.21,1.02h11.67l8.51,55.87c.28,1.82,1.84,3.17,3.69,3.17h57.52c1.09,0,2.12-.47,2.83-1.3.71-.82,1.02-1.92.86-2.99-1.85-12.17-8.32-54.66-10.57-69.43-.51-3.36-3.4-5.84-6.81-5.84H8.06c.48,0,.86.39.86.86s-.39.86-.86.86h0c.04-.08.98-1.73,0-1.73Z" style="fill: #371f1a; fill-rule: evenodd;"/>
      <path d="m47.88,65.31c4-.81,20.05-5.64,23.54-10.45l-1.69-4.86s7.04.6,15.01-4.84l-2.77-4.97c7.44-1.39,13.62-14.74,17.14-20.41,0,0-10.43-1.18-23.08,6.76s-32.4,39.63-28.15,38.77Z" style="fill: #f8fae5; fill-rule: evenodd;"/>
      <path d="m48.25,64.34c.09-.41.26-1.05.51-1.64,3.25-7.83,17.73-29.15,27.73-35.43,9.63-6.05,17.94-6.7,21.13-6.69-2.05,3.5-4.81,8.79-8.1,12.92-2.34,2.94-4.91,5.32-7.72,5.84-.27.05-.51.23-.62.48-.12.25-.11.54.03.79l2.38,4.28c-7.4,4.77-13.79,4.26-13.79,4.26-.29-.03-.58.1-.76.33-.18.23-.23.54-.13.81l1.53,4.42c-1.07,1.25-3,2.46-5.29,3.62-5.74,2.9-13.69,5.29-16.91,6.03Zm-.2,1.81c2.84-.57,11.65-3.14,17.89-6.3,2.79-1.41,5.07-2.96,6.18-4.49.17-.23.21-.52.12-.79l-1.29-3.71c2.45-.08,8.1-.78,14.28-5,.37-.25.49-.74.27-1.13l-2.23-4c2.73-.92,5.31-3.26,7.62-6.16,3.75-4.72,6.84-10.92,8.96-14.34.16-.25.17-.57.04-.83-.13-.27-.39-.45-.68-.48,0,0-10.68-1.25-23.63,6.89-10.24,6.43-25.09,28.22-28.41,36.23-.46,1.11-.71,1.99-.73,2.57-.03.7.23,1.13.56,1.36.26.18.6.28,1.06.19Z" style="fill: #371f1a; fill-rule: evenodd;"/>
      <path d="m42.99,75.03s3.68-8.24,9.88-18.29c1.72-2.79,3.64-5.71,5.72-8.65,1.95-2.76,4.04-5.54,6.28-8.19,1.84-2.25,4.92-5.34,8.73-8.39,3-2.41,6.44-4.81,10.13-6.72,4.87-2.53,10.14-4.25,15.32-4.01l.14-2.13c-5.58-.49-11.36,1.07-16.72,3.6-3.95,1.86-7.66,4.25-10.87,6.71-4.11,3.14-7.39,6.39-9.38,8.74-2.27,2.77-4.4,5.64-6.34,8.54-2.05,3.05-3.89,6.11-5.53,9.03-5.87,10.46-9.11,19.05-9.11,19.05l1.75.72Z" style="fill: #371f1a; fill-rule: evenodd;"/>
      <rect y=".03" width="100" height="79.55" style="fill: none;"/>
    </g>
  </g>
</svg>